# xmcd
#
# Track frame offsets: 
#        182
#        12542
#        24810
#        37685
#        48135
#        60312
#        77105
#        87960
#        102200
#        123427
#
# Disc length: 1797 seconds
#
# Revision: 3
# Processed by: cddbd v1.5PL3 Copyright (c) Steve Scherf et al.
# Submitted via: ExactAudioCopy v0.95a4
#
DISCID=6607030a
DTITLE=Johnny Winter - Leavin' Blues
DYEAR=1994
DGENRE=Blues
TTITLE0=Parchman Farm
TTITLE1=Livin' In The Blues
TTITLE2=Leavin' Blues
TTITLE3=38-32-20 Blues
TTITLE4=Bad News
TTITLE5=Kind Hearted Woman
TTITLE6=Out Of Sight
TTITLE7=Low Down Gal Of Mine
TTITLE8=Goin' Down Slow
TTITLE9=Avocado Green
EXTD=
EXTT0=
EXTT1=
EXTT2=
EXTT3=
EXTT4=
EXTT5=
EXTT6=
EXTT7=
EXTT8=
EXTT9=
PLAYORDER=
